<svg height="512" viewBox="0 0 64 64" width="512" xmlns="http://www.w3.org/2000/svg"><g id="flat"><path d="m3 10h58v40h-58z" fill="#394d5c"/><path d="m21 50h22v4h-22z" fill="#7d8d9c"/><path d="m58 57-15-3h-22l-15 3c-1.929.321-3 1.045-3 3v1l18-3h22l18 3v-1c0-1.955-1.071-2.679-3-3z" fill="#394d5c"/><path d="m7 14h50v32h-50z" fill="#f4f4e6"/><path d="m22 42-5-2v-6l5 2z" fill="#ffd782"/><path d="m22 42 5-2v-6l-5 2z" fill="#f9bb4b"/><path d="m17 34 5-2 5 2-5 2z" fill="#ad6327"/><path d="m44 38-4-2v-4l4 2z" fill="#8ec13f"/><path d="m44 38 4-2v-4l-4 2z" fill="#55b56a"/><path d="m40 32 4-2 4 2-4 2z" fill="#3e8051"/><g fill="#32b1cc"><path d="m54 43h-6v-2h4v-6h2z"/><path d="m47.372 28.929-.744-1.858 4.372-1.748v-4.323h2v5.677z"/><path d="m18.606 29.919-7.606-3.26v-9.659h2v8.341l6.394 2.74z"/></g><path d="m31 34h2v2h-2z" fill="#e97424"/><path d="m12 40h2v2h-2z" fill="#e97424"/><path d="m34 38h2v2h-2z" fill="#e97424"/><path d="m16 6 16-3 16 3-16 4z" fill="#b11e48"/><path d="m32 30-16-6v-18l16 4z" fill="#f98c96"/><path d="m32 30 16-6v-18l-16 4z" fill="#da1c4b"/></g></svg>