<svg id="Capa_1" enable-background="new 0 0 512 512" height="512" viewBox="0 0 512 512" width="512" xmlns="http://www.w3.org/2000/svg"><g><g><path d="m340.293 453.724h-168.586l20.813-72.846h126.96z" fill="#365e7d"/></g><g><path d="m491.187 380.878h-470.374c-11.495 0-20.813-9.318-20.813-20.813v-322.602c0-11.494 9.318-20.813 20.813-20.813h470.374c11.495 0 20.813 9.318 20.813 20.813v322.602c0 11.495-9.318 20.813-20.813 20.813z" fill="#4a80aa"/></g><g><path d="m491.187 16.65h-33.301c11.495 0 20.813 9.318 20.813 20.813v322.602c0 11.495-9.318 20.813-20.813 20.813h33.301c11.495 0 20.813-9.318 20.813-20.813v-322.602c0-11.494-9.318-20.813-20.813-20.813z" fill="#407093"/></g><g><path d="m33.301 306.056v-245.803c0-5.69 4.612-10.302 10.302-10.302h424.795c5.69 0 10.302 4.612 10.302 10.302v245.803c0 5.69-4.612 10.302-10.302 10.302h-424.795c-5.69 0-10.302-4.613-10.302-10.302z" fill="#80b4fb"/></g><g><path d="m316.358 110.372v-20.939c0-3.414 2.767-6.181 6.181-6.181h116.678c3.414 0 6.181 2.767 6.181 6.181v20.939c0 3.414-2.767 6.181-6.181 6.181h-116.678c-3.414 0-6.181-2.768-6.181-6.181z" fill="#e278b1"/></g><g><path d="m453.724 316.358v-266.407h14.674c5.69 0 10.302 4.612 10.302 10.302v245.803c0 5.69-4.612 10.302-10.302 10.302z" fill="#61a2f9"/></g><g><path d="m366.414 495.35h-220.828c-5.69 0-10.302-4.612-10.302-10.302v-10.511c0-11.495 9.318-20.813 20.813-20.813h199.805c11.495 0 20.813 9.318 20.813 20.813v10.511c0 5.689-4.612 10.302-10.301 10.302z" fill="#4a80aa"/></g><g><path d="m355.902 453.724h-28.098c11.495 0 20.813 9.318 20.813 20.813v20.813h17.796c5.69 0 10.302-4.612 10.302-10.302v-10.511c0-11.495-9.318-20.813-20.813-20.813z" fill="#407093"/></g><g><g><path d="m285.075 233.106h20.939c3.414 0 6.181 2.767 6.181 6.181v37.589c0 3.414-2.767 6.181-6.181 6.181h-20.939c-3.414 0-6.181-2.767-6.181-6.181v-37.589c0-3.414 2.768-6.181 6.181-6.181z" fill="#a2f4c1"/></g><g><path d="m351.677 191.48h20.939c3.414 0 6.181 2.767 6.181 6.181v79.215c0 3.414-2.767 6.181-6.181 6.181h-20.939c-3.414 0-6.181-2.767-6.181-6.181v-79.215c0-3.414 2.767-6.181 6.181-6.181z" fill="#78d0b1"/></g><g><path d="m418.279 149.854h20.939c3.414 0 6.181 2.767 6.181 6.181v120.841c0 3.414-2.767 6.181-6.181 6.181h-20.939c-3.414 0-6.181-2.767-6.181-6.181v-120.841c0-3.414 2.767-6.181 6.181-6.181z" fill="#66b49d"/></g></g><g><path d="m118.634 257.483h-52.032c-4.268 0-7.726-3.459-7.726-7.726s3.459-7.726 7.726-7.726h52.032c4.268 0 7.726 3.459 7.726 7.726s-3.459 7.726-7.726 7.726z" fill="#e4f6ff"/></g><g><path d="m170.667 290.784h-104.065c-4.268 0-7.726-3.459-7.726-7.726s3.459-7.726 7.726-7.726h104.065c4.268 0 7.726 3.459 7.726 7.726s-3.458 7.726-7.726 7.726z" fill="#e4f6ff"/></g><g><path d="m188.011 186.024c-1.977 0-3.955-.755-5.464-2.263-3.017-3.018-3.017-7.909 0-10.928l74.232-74.232c3.018-3.016 7.909-3.016 10.928 0 3.017 3.018 3.017 7.909 0 10.928l-74.232 74.232c-1.509 1.509-3.487 2.263-5.464 2.263z" fill="#ffd064"/></g><g><path d="m181.217 178.537c-1.977 0-3.955-.755-5.464-2.263l-27.705-27.705c-3.017-3.018-3.017-7.909 0-10.928 3.018-3.016 7.909-3.016 10.928 0l27.705 27.705c3.017 3.018 3.017 7.909 0 10.928-1.509 1.509-3.487 2.263-5.464 2.263z" fill="#ffd064"/></g><g><path d="m91.228 191.229c-1.977 0-3.955-.755-5.464-2.263-3.017-3.018-3.017-7.909 0-10.928l44.813-44.813c3.018-3.016 7.909-3.016 10.928 0 3.017 3.018 3.017 7.909 0 10.928l-44.813 44.813c-1.509 1.509-3.487 2.263-5.464 2.263z" fill="#ffd064"/></g><g><g><circle cx="87.415" cy="187.317" fill="#ffe07d" r="20.813"/></g><g><circle cx="142.569" cy="132.163" fill="#ffe07d" r="20.813"/></g><g><circle cx="188.358" cy="177.951" fill="#ffe07d" r="20.813"/></g><g><circle cx="262.244" cy="104.065" fill="#ffe07d" r="20.813"/></g></g></g></svg>